#!OML:ASF H:\ColoradoDance\Project 1\Capture day 1\Session 8\male.ASF
:FULLY-SPECIFIED
:DEGREES
110
upperback 1.391520 0.704178 13.954600
rfoot 7.209180 -25.718901
lradius 17.353201
lthumb 46.816898 380.963013
rradius 35.651100
lwrist -12.537700
rhand -7.259280 -82.675598
rhumerus -50.097301 -18.801001 -25.153099
lowerneck -2.120280 -13.177400 -3.064750
lhand 22.457199 -1.783790
ltibia 49.851898
head 3.773730 -9.259360 1.249900
rwrist -60.812500
lfingers 7.125020
rtoes 30.205700
lowerback 10.716400 0.469756 15.027200
rfingers 7.125020
lclavicle 0.000000 -0.000000
upperneck 7.883330 -18.671301 4.844930
rfemur -30.396400 -6.733140 -19.633900
thorax -4.353870 -0.702524 6.696050
rclavicle 0.000000 -0.000000
rtibia 54.975101
lfoot -23.367800 -5.566140
lhumerus -34.591900 -3.198010 7.869250
rthumb 18.621401 -248.195999
root -10.020800 18.162500 -0.230062 -158.367004 -23.658899 -193.988007
ltoes -12.907700
lfemur -42.353199 -0.363028 -28.901300
111
upperback 3.001910 0.134160 13.760700
rfoot -0.980923 -26.338699
lradius 18.023199
lthumb 24.041500 399.489014
rradius 20.216600
lwrist -16.922001
rhand -34.382198 -50.809299
rhumerus -65.888199 -20.906401 -19.155300
lowerneck -5.605470 -8.105230 -0.913433
lhand -1.616200 10.974300
ltibia 57.696098
head 4.437400 -6.034730 -2.221200
rwrist -24.990900
lfingers 7.125020
rtoes -22.623600
lowerback 12.146700 0.453649 13.807300
rfingers 7.125020
lclavicle 0.000000 -0.000000
upperneck 11.174700 -11.118800 -5.207390
rfemur -30.923201 5.583880 -28.352600
thorax -3.362700 -1.073120 7.195760
rclavicle 0.000000 -0.000000
rtibia 29.060801
lfoot -26.176600 2.294220
lhumerus -38.849499 0.722353 -2.294130
rthumb -7.548460 -440.654999
root -8.624930 17.650299 -0.231421 -152.843002 -8.977400 -188.863998
ltoes -18.288401
lfemur -55.650700 8.464110 -22.878401
112
upperback 4.835610 -1.225720 11.364500
rfoot -17.125601 -13.143800
lradius 16.825199
lthumb -14.170800 395.647003
rradius 17.818399
lwrist -20.726299
rhand -53.174599 -45.442200
rhumerus -74.463600 -29.061100 -10.844200
lowerneck -6.279340 -1.827410 0.037947
lhand -41.248199 6.150390
ltibia 50.829201
head 3.610050 -0.510467 -4.454870
rwrist -9.330680
lfingers 7.125020
rtoes -32.731499
lowerback 12.176900 -3.351710 8.865540
rfingers 7.125020
lclavicle 0.000000 0.000000
upperneck 8.709040 -0.309674 -14.528300
rfemur -61.429100 -1.010310 -18.734400
thorax -1.741140 0.115895 7.298340
rclavicle 0.000000 0.000000
rtibia 45.997898
lfoot -20.171200 12.527200
lhumerus -39.355701 12.026600 -8.759630
rthumb -25.632999 -433.737000
root -5.613720 17.406200 -0.164032 -143.518005 4.501800 -184.237000
ltoes -20.963600
lfemur -59.926300 18.208599 -12.058700
113
upperback 7.034000 -2.485040 6.629910
rfoot -23.671600 -3.114530
lradius 18.222601
lthumb -19.430599 397.963013
rradius 17.502899
lwrist -11.517400
rhand -57.142200 -49.921001
rhumerus -81.286797 -31.856300 4.710530
lowerneck -6.241210 4.088030 5.138630
lhand -46.712200 8.913960
ltibia 23.087099
head 4.116460 3.120120 -6.035480
rwrist 6.700460
lfingers 7.125020
rtoes -27.723700
lowerback 18.764400 -4.057360 6.291360
rfingers 7.125020
lclavicle -0.000000 -0.000000
upperneck 7.445980 7.204870 -18.126900
rfemur -71.640503 6.854040 3.279940
thorax -2.908590 -0.668930 4.023780
rclavicle -0.000000 -0.000000
rtibia 60.018700
lfoot -20.653099 36.479900
lhumerus -26.776800 18.351700 -5.753710
rthumb -29.427299 -437.609985
root -2.085270 17.499201 -0.365191 -146.110992 10.180600 -176.274994
ltoes 5.121240
lfemur -29.932699 7.194190 15.121200
114
upperback 5.123070 -5.548510 2.544200
rfoot -25.880100 -2.274180
lradius 19.192200
lthumb -21.981100 394.308014
rradius 18.951700
lwrist -10.991100
rhand -48.532299 -58.569199
rhumerus -76.954002 -31.147301 13.501200
lowerneck -4.667000 8.235390 9.442420
lhand -49.366600 5.536710
ltibia 39.021400
head 5.092790 5.685290 -5.059810
rwrist 10.835100
lfingers 7.125020
rtoes -18.006901
lowerback 10.573600 -4.743750 2.559060
rfingers 7.125020
lclavicle 0.000000 -0.000000
upperneck 9.653440 12.135400 -13.953700
rfemur -74.788200 10.367900 17.171400
thorax -0.559109 -2.572430 1.803110
rclavicle 0.000000 -0.000000
rtibia 65.073997
lfoot -2.926450 36.738400
lhumerus -19.424200 23.437401 -1.922730
rthumb -21.179800 -807.432007
root 0.554321 17.425200 -0.405183 -144.378998 6.287130 -173.537003
ltoes 29.508600
lfemur -42.381001 9.552200 20.804600
115
upperback 5.291180 -3.775900 -1.190820
rfoot -25.434900 -5.740870
lradius 18.094900
lthumb -21.447300 395.941986
rradius 18.686701
lwrist -18.421700
rhand -62.992100 -72.199997
rhumerus -66.412201 -31.325899 16.700500
lowerneck -4.457220 8.927270 12.061900
lhand -48.810799 7.109140
ltibia 69.038803
head 6.258230 6.476010 -3.938580
rwrist 3.713580
lfingers 7.125020
rtoes -11.729000
lowerback 9.841700 -3.134270 -0.762939
rfingers 7.125020
lclavicle 0.000000 0.000000
upperneck 13.628400 12.993900 -9.480010
rfemur -61.996700 11.392700 28.895700
thorax -0.044268 -1.695480 -0.436967
rclavicle 0.000000 0.000000
rtibia 62.435799
lfoot 1.906110 8.491170
lhumerus -20.552401 30.141300 0.149124
rthumb -34.995399 -981.242981
root 1.881850 17.723301 -0.637072 -152.354996 2.979880 -171.052002
ltoes -11.945400
lfemur -60.152401 9.854170 10.705900
116
upperback 4.929090 -1.246000 -3.253020
rfoot -28.312599 -7.022060
lradius 16.483101
lthumb -19.278400 398.963013
rradius 18.943501
lwrist -15.684000
rhand -59.254799 -46.532001
rhumerus -51.265701 -32.148701 14.575000
lowerneck -5.370640 7.662980 11.985800
lhand -46.553902 9.898500
ltibia 74.081703
head 7.285490 6.232680 -2.120910
rwrist 2.991270
lfingers 7.125020
rtoes -9.018050
lowerback 8.358130 -0.384606 -2.427160
rfingers 7.125020
lclavicle 0.000000 0.000000
upperneck 18.035200 11.147200 -3.595100
rfemur -51.952599 6.674770 35.334400
thorax 0.387019 -0.856936 -1.897200
rclavicle 0.000000 0.000000
rtibia 59.678299
lfoot 6.351940 1.260720
lhumerus -25.681499 27.713600 3.510380
rthumb -31.442101 -793.848022
root 2.446650 17.803101 -0.743617 -159.807999 -3.860970 -169.574997
ltoes -7.771270
lfemur -63.333500 -3.893310 13.662300
117
upperback 4.163330 2.474760 -4.462030
rfoot -28.944000 -7.215460
lradius 17.096600
lthumb -20.034201 395.821014
rradius 19.106001
lwrist -19.414900
rhand -64.396500 -67.307800
rhumerus -30.322201 -28.192499 -0.615712
lowerneck -6.981620 7.718590 9.142690
lhand -47.340000 6.834180
ltibia 72.579803
head 8.162550 4.004310 -0.010228
rwrist 2.501330
lfingers 7.125020
rtoes -9.688780
lowerback 7.196420 2.441770 -3.715710
rfingers 7.125020
lclavicle 0.000000 0.000000
upperneck 21.612801 7.382000 2.624070
rfemur -43.948898 0.481518 40.212502
thorax 0.304282 1.003600 -2.694210
rclavicle 0.000000 0.000000
rtibia 55.797798
lfoot 16.516300 2.202520
lhumerus -31.555401 25.833799 6.167430
rthumb -36.326500 -626.456970
root 2.892910 17.960800 -0.902128 -166.007004 -10.472000 -167.938004
ltoes -1.407830
lfemur -62.046902 -12.614600 18.704399
118
upperback 3.427800 6.796080 -5.824530
rfoot -29.268700 -7.760760
lradius 18.104000
lthumb -15.825600 396.639008
rradius 18.786400
lwrist -13.692200
rhand -53.250301 -28.116800
rhumerus -9.923010 -19.597099 -17.016800
lowerneck -7.769910 5.250030 7.071790
lhand -42.966000 7.266150
ltibia 70.219398
head 8.494220 2.225310 1.316230
rwrist 4.676430
lfingers 7.125020
rtoes -8.720370
lowerback 6.416240 5.703920 -3.640770
rfingers 7.125020
lclavicle 0.000000 0.000000
upperneck 22.906700 3.161700 6.755850
rfemur -39.619598 -3.800500 42.891499
thorax 0.254401 3.175110 -4.408640
rclavicle 0.000000 0.000000
rtibia 53.335098
lfoot 20.240299 2.252590
lhumerus -32.327801 19.080400 11.622700
rthumb -25.705500 -776.401001
root 3.222390 18.044001 -0.995370 -170.063995 -15.511200 -166.815994
ltoes 2.384020
lfemur -60.915001 -16.936199 21.430300
119
upperback 3.120580 9.053490 -5.917920
rfoot -29.529900 -8.885580
lradius 19.033300
lthumb -10.965200 400.270996
rradius 21.904100
lwrist -8.363320
rhand -41.566898 -12.306700
rhumerus 8.694270 -3.740320 -26.481001
lowerneck -9.309780 3.005800 3.869120
lhand -37.923199 10.577600
ltibia 69.171799
head 8.701610 0.828197 2.488350
rwrist 0.337463
lfingers 7.125020
rtoes -6.761660
lowerback 5.765920 7.347200 -3.716830
rfingers 7.125020
lclavicle -0.000000 -0.000000
upperneck 22.807600 0.033842 9.469190
rfemur -38.780499 -6.609180 45.334900
thorax 0.417881 4.325600 -4.530760
rclavicle -0.000000 -0.000000
rtibia 52.184101
lfoot 21.484200 2.453330
lhumerus -36.330399 16.009501 14.845300
rthumb -14.477900 -761.781982
root 3.457170 18.049200 -1.082670 -171.882996 -20.242300 -165.485992
ltoes 4.940930
lfemur -62.262699 -18.872299 23.600401
120
upperback 3.167860 11.085600 -6.620160
rfoot -29.657200 -8.724420
lradius 18.759399
lthumb -9.057620 394.644012
rradius 23.732901
lwrist -8.063910
rhand -37.506599 11.463000
rhumerus 20.920099 3.988620 -28.602400
lowerneck -9.921970 1.321050 3.507230
lhand -35.945900 4.858870
ltibia 68.750504
head 8.678420 -0.242217 2.946600
rwrist -2.887660
lfingers 7.125020
rtoes -5.246920
lowerback 5.673970 8.840060 -2.546440
rfingers 7.125020
lclavicle 0.000000 -0.000000
upperneck 22.012100 -2.599650 11.437100
rfemur -38.429600 -9.534730 47.976299
thorax 1.000550 5.374140 -5.936390
rclavicle 0.000000 -0.000000
rtibia 51.220600
lfoot 22.502100 2.799310
lhumerus -37.792900 14.548800 16.456600
rthumb -10.563300 -738.250977
root 3.627290 18.045000 -1.247160 -173.082001 -23.703199 -163.951996
ltoes 6.380370
lfemur -63.621799 -20.397499 26.144400
